<?xml version="1.0" encoding="UTF-8"?>
<svg xmlns="http://www.w3.org/2000/svg" width="251" height="40" viewBox="0 0 251 40" fill="none">
  <path d="M0 39.9273H9.03476L27.1828 0H18.1481L0 39.9273Z" fill="url(#paint0_linear_389_550)"></path>
  <path d="M0 39.9273H9.03476L27.1828 0H18.1481L0 39.9273Z" fill="url(#paint1_linear_389_550)" fill-opacity="0.3"></path>
  <path d="M45.3313 39.9273H36.2965L18.1484 0H27.1832L45.3313 39.9273Z" fill="url(#paint2_linear_389_550)"></path>
  <path d="M45.3313 39.9273H36.2965L18.1484 0H27.1832L45.3313 39.9273Z" fill="url(#paint3_linear_389_550)" fill-opacity="0.2"></path>
  <path d="M12.7153 31.8276L16.3964 39.9268H45.3305L41.6494 31.8276H12.7153Z" fill="url(#paint4_linear_389_550)"></path>
  <path d="M82.1733 24.147H73.3567L71.5317 28.2946H69.0906L76.6037 11.7041H78.95L86.4868 28.2946H83.9983L82.1733 24.147ZM81.3438 22.2509L77.765 14.1216L74.1862 22.2509H81.3438Z" fill="#1C1F39"></path>
  <path d="M103.229 11.7041V28.2946H101.286L91.3318 15.9229V28.2946H88.9617V11.7041H90.9052L100.859 24.0759V11.7041H103.229Z" fill="#1C1F39"></path>
  <path d="M122.463 11.7041V28.2946H120.52L110.565 15.9229V28.2946H108.195V11.7041H110.139L120.093 24.0759V11.7041H122.463Z" fill="#1C1F39"></path>
  <path d="M139.469 26.2327V28.2946H127.429V11.7041H139.137V13.7661H129.799V18.8617H138.118V20.8763H129.799V26.2327H139.469Z" fill="#1C1F39"></path>
  <path d="M153.55 28.2946L148.572 21.4451L143.666 28.2946H140.941L147.174 19.7861L141.32 11.7041H144.022L148.667 18.0796L153.265 11.7041H155.849L149.995 19.715L156.275 28.2946H153.55Z" fill="#1C1F39"></path>
  <path d="M174.476 28.4842C172.817 28.4842 171.316 28.1208 169.973 27.394C168.646 26.6514 167.603 25.6401 166.845 24.3603C166.086 23.0647 165.707 21.611 165.707 19.9994C165.707 18.3877 166.086 16.942 166.845 15.6621C167.603 14.3665 168.654 13.3553 169.997 12.6285C171.34 11.8858 172.841 11.5145 174.5 11.5145C175.796 11.5145 176.981 11.7357 178.055 12.1781C179.13 12.6048 180.046 13.2447 180.804 14.0979L179.264 15.591C178.016 14.2796 176.459 13.6239 174.595 13.6239C173.362 13.6239 172.248 13.9004 171.253 14.4534C170.258 15.0064 169.476 15.7728 168.907 16.7524C168.354 17.7162 168.077 18.7985 168.077 19.9994C168.077 21.2002 168.354 22.2904 168.907 23.2701C169.476 24.2339 170.258 24.9923 171.253 25.5453C172.248 26.0984 173.362 26.3749 174.595 26.3749C176.444 26.3749 178 25.7112 179.264 24.384L180.804 25.8771C180.046 26.7304 179.122 27.3782 178.031 27.8206C176.957 28.263 175.772 28.4842 174.476 28.4842Z" fill="#1C1F39"></path>
  <path d="M184.185 11.7041H186.556V26.2327H195.538V28.2946H184.185V11.7041Z" fill="#1C1F39"></path>
  <path d="M204.088 28.4842C202.413 28.4842 200.904 28.1208 199.561 27.394C198.218 26.6514 197.16 25.6322 196.385 24.3366C195.627 23.041 195.248 21.5952 195.248 19.9994C195.248 18.4035 195.627 16.9578 196.385 15.6621C197.16 14.3665 198.218 13.3553 199.561 12.6285C200.904 11.8858 202.413 11.5145 204.088 11.5145C205.747 11.5145 207.248 11.8858 208.591 12.6285C209.934 13.3553 210.985 14.3665 211.743 15.6621C212.502 16.942 212.881 18.3877 212.881 19.9994C212.881 21.611 212.502 23.0647 211.743 24.3603C210.985 25.6401 209.934 26.6514 208.591 27.394C207.248 28.1208 205.747 28.4842 204.088 28.4842ZM204.088 26.3749C205.305 26.3749 206.395 26.0984 207.359 25.5453C208.338 24.9923 209.105 24.2339 209.658 23.2701C210.227 22.2904 210.511 21.2002 210.511 19.9994C210.511 18.7985 210.227 17.7162 209.658 16.7524C209.105 15.7728 208.338 15.0064 207.359 14.4534C206.395 13.9004 205.305 13.6239 204.088 13.6239C202.871 13.6239 201.765 13.9004 200.77 14.4534C199.79 15.0064 199.016 15.7728 198.447 16.7524C197.894 17.7162 197.618 18.7985 197.618 19.9994C197.618 21.2002 197.894 22.2904 198.447 23.2701C199.016 24.2339 199.79 24.9923 200.77 25.5453C201.765 26.0984 202.871 26.3749 204.088 26.3749Z" fill="#1C1F39"></path>
  <path d="M223.377 28.4842C221.165 28.4842 219.442 27.8522 218.21 26.5882C216.978 25.3241 216.361 23.5071 216.361 21.137V11.7041H218.731V21.0422C218.731 24.5973 220.288 26.3749 223.4 26.3749C224.917 26.3749 226.079 25.9403 226.884 25.0713C227.69 24.1865 228.093 22.8435 228.093 21.0422V11.7041H230.392V21.137C230.392 23.5229 229.776 25.3478 228.543 26.6119C227.311 27.8601 225.589 28.4842 223.377 28.4842Z" fill="#1C1F39"></path>
  <path d="M234.777 11.7041H241.769C243.523 11.7041 245.079 12.0517 246.438 12.747C247.797 13.4422 248.847 14.4218 249.59 15.6858C250.348 16.9341 250.728 18.3719 250.728 19.9994C250.728 21.6268 250.348 23.0726 249.59 24.3366C248.847 25.5848 247.797 26.5566 246.438 27.2518C245.079 27.947 243.523 28.2946 241.769 28.2946H234.777V11.7041ZM241.627 26.2327C242.97 26.2327 244.147 25.9719 245.158 25.4505C246.185 24.9291 246.975 24.2023 247.528 23.2701C248.081 22.322 248.358 21.2318 248.358 19.9994C248.358 18.7669 248.081 17.6846 247.528 16.7524C246.975 15.8044 246.185 15.0696 245.158 14.5482C244.147 14.0268 242.97 13.7661 241.627 13.7661H237.147V26.2327H241.627Z" fill="#1C1F39"></path>
  <rect x="56.363" width="1.21212" height="40" fill="#1C1F39"></rect>
  <defs>
    <linearGradient id="paint0_linear_389_550" x1="27.14" y1="1.50983e-07" x2="-4.33807" y2="3.76946" gradientUnits="userSpaceOnUse">
      <stop stop-color="#A21B55"></stop>
      <stop offset="0.352743" stop-color="#E91768"></stop>
      <stop offset="0.680876" stop-color="#EF545A"></stop>
      <stop offset="1" stop-color="#F58E62"></stop>
    </linearGradient>
    <linearGradient id="paint1_linear_389_550" x1="18.1409" y1="-1.47556e-07" x2="-4.02655e-05" y2="39.9958" gradientUnits="userSpaceOnUse">
      <stop offset="0.107061"></stop>
      <stop offset="0.319905" stop-opacity="0"></stop>
    </linearGradient>
    <linearGradient id="paint2_linear_389_550" x1="18.1413" y1="1.43603e-07" x2="10.0151" y2="30.6438" gradientUnits="userSpaceOnUse">
      <stop stop-color="#A21B55"></stop>
      <stop offset="0.352743" stop-color="#E91768"></stop>
      <stop offset="0.680876" stop-color="#EF545A"></stop>
      <stop offset="1" stop-color="#F58E62"></stop>
    </linearGradient>
    <linearGradient id="paint3_linear_389_550" x1="45.2813" y1="39.9958" x2="18.1412" y2="3.13695e-05" gradientUnits="userSpaceOnUse">
      <stop offset="0.0918548"></stop>
      <stop offset="0.394218" stop-opacity="0"></stop>
    </linearGradient>
    <linearGradient id="paint4_linear_389_550" x1="12.7125" y1="31.8533" x2="43.8184" y2="28.047" gradientUnits="userSpaceOnUse">
      <stop stop-color="#EF545A"></stop>
      <stop offset="1" stop-color="#F58E62"></stop>
    </linearGradient>
  </defs>
</svg>
